<?xml version="1.0" standalone="no"?><!DOCTYPE svg PUBLIC "-//W3C//DTD SVG 1.1//EN" "http://www.w3.org/Graphics/SVG/1.1/DTD/svg11.dtd"><svg t="1660904686583" class="icon" viewBox="0 0 1024 1024" version="1.1" xmlns="http://www.w3.org/2000/svg" p-id="1166" xmlns:xlink="http://www.w3.org/1999/xlink" width="200" height="200"><defs><style type="text/css"></style></defs><path d="M765.12234494 59.50121839l-28.13691721 48.69005592c138.70620899 80.23417794 224.98542773 229.60164072 224.98542775 389.74026709 0 248.06649262-201.79445301 449.86094563-449.86094565 449.86094563S62.2489642 745.8881242 62.2489642 497.82163158c0-160.13862638 86.1693089-309.39617932 224.98542772-389.7402671l-28.13691718-48.69005594c-156.07196257 90.23597271-253.01243509 258.28810706-253.0124351 438.32041318 0 279.06106548 227.07371455 506.13478004 506.13478002 506.13478004S1018.24468985 776.88269703 1018.24468985 497.82163158c0-180.14221595-96.94047253-348.08444047-253.12234491-438.32041319z" fill="#2c2c2c" p-id="1167"></path><path d="M459.46309994 429.56762541l-28.13691723-48.69005592c-49.78915426 28.79637619-80.78372712 82.43237459-80.78372707 139.91521713 0 89.02696456 72.43057981 161.5674542 161.56745419 161.56745421s161.5674542-72.43057981 161.56745421-161.56745421v-6.92431946L445.17482165 76.09760312h180.25212579V19.82376874H352.41092279l264.88269702 507.56360786c-3.40720482 55.06482623-49.23960509 98.80893969-105.07380015 98.80893968-58.03239173 0-105.29361981-47.2612281-105.29361982-105.29361983-0.10990983-37.47925299 20.00358958-72.54048965 52.5369001-91.33507104z" fill="#2c2c2c" p-id="1168"></path></svg>