<svg
   viewBox="0 0 1024 1024"
   version="1.1"
   xmlns="http://www.w3.org/2000/svg"
   xmlns:svg="http://www.w3.org/2000/svg">
     <path d="M 512.00108,0 C 229.3705,0 0,229.3705 0,512.00108 0,794.63167 229.3705,1024 512.00108,1024 794.63167,1024 1024,794.63167 1024,512.00108 1024,229.3705 794.63167,0 512.00108,0 Z m 0,79.875504 c 238.30322,0 432.12341,193.822366 432.12341,432.125576 0,238.30322 -193.82019,432.12341 -432.12341,432.12341 -238.30321,0 -432.125574,-193.82019 -432.125574,-432.12341 0,-238.30321 193.822364,-432.125574 432.125574,-432.125576 z m 29.7961,108.880676 c -19.48966,0 -35.11982,14.99422 -37.43529,33.61029 -5.6e-4,0.004 -0.001,0.009 -0.002,0.013 -0.0131,-0.10356 -0.40411,0.6412 -0.40411,3.08593 l 0.255,-2.06161 c 0.20998,-0.83993 -0.59428,0.70294 -0.59428,3.53542 v 364.63918 c -14.33787,-5.89836 -29.93335,-9.4458 -46.5656,-9.4458 h -78.63075 c -69.7481,0 -126.55563,56.80752 -126.55563,126.55563 0,69.7481 56.80753,126.55563 126.55563,126.55563 h 78.63075 c 69.51837,0 126.14854,-56.442 126.52106,-125.87491 h 0.0345 V 708.68822 297.974 l 71.78899,41.47423 0.0173,0.0111 c 6.03236,3.44706 12.87847,5.31178 19.8511,5.31178 13.82725,0 27.22474,-7.26207 34.64326,-19.95915 l 0.0324,-0.0562 0.0324,-0.0583 c 10.73354,-19.03414 4.22916,-43.55594 -14.81376,-54.5808 -4.71713,8.14946 -4.71615,8.14944 -0.0111,-0.007 l -128.82254,-74.32386 0.61589,0.39115 c -5.75746,-4.01684 -13.05932,-7.42093 -21.62962,-7.42093 z M 378.30761,662.12259 h 78.6286 c 25.75617,0 46.5656,20.80943 46.5656,46.5656 0,25.75617 -20.80943,46.56559 -46.5656,46.56559 h -78.6286 c -25.75617,0 -46.56775,-20.80942 -46.56775,-46.56559 0,-25.75617 20.81158,-46.5656 46.56775,-46.5656 z"
  />
</svg>
