<svg viewBox="0 0 1024 1024" version="1.1" xmlns="http://www.w3.org/2000/svg" p-id="1447" xmlns:xlink="http://www.w3.org/1999/xlink">
  <path d="M512 11.78813874C333.3529067 11.78813874 172.57052271 104.68462726 83.24697605 254.74818564L83.24697605 226.16465071c0-21.43765119-14.29176747-35.72941866-35.72941865-35.72941866S11.78813874 204.72699952 11.78813874 226.16465071l0 142.91767464c0 21.43765119 14.29176747 35.72941866 35.72941866 35.72941867l142.91767465 0c21.43765119 0 35.72941866-14.29176747 35.72941866-35.72941867s-14.29176747-35.72941866-35.72941866-35.72941865L122.54933658 333.3529067c71.45883732-153.63650026 221.52239569-250.10593065 389.45066342-250.10593065 235.81416316 0 428.75302395 192.93886077 428.75302395 428.75302395s-192.93886077 428.75302395-428.75302395 428.75302395c-171.50120958 0-328.71065168-103.61531412-393.02360527-260.82475625-7.14588372-17.86470933-28.58353493-25.01059306-46.44824426-17.86470933-17.86470933 7.14588372-25.01059306 28.58353493-17.86470933 46.44824427C129.69522034 894.30477966 311.9152555 1012.21186126 512 1012.21186126c275.11652368 0 500.21186126-225.09533757 500.21186126-500.21186126S787.11652368 11.78813874 512 11.78813874z"></path>
  <path d="M512 154.70581339c-21.43765119 0-35.72941866 14.29176747-35.72941866 35.72941866l0 321.56476795c0 10.71882561 3.57294188 17.86470933 10.7188256 25.01059306l178.64709332 178.64709331c7.14588372 7.14588372 17.86470933 10.71882561 25.01059304 10.71882559s17.86470933-3.57294188 25.01059307-10.71882559c14.29176747-14.29176747 14.29176747-35.72941866 0-50.02118611L547.72941866 497.70823253 547.72941866 190.43523205C547.72941866 168.99758085 533.43765119 154.70581339 512 154.70581339z"></path>
</svg>