<svg viewBox="0 0 1024 1024" version="1.1" xmlns="http://www.w3.org/2000/svg">
  <path d="M722.13 138.97c61.33 0 118.93 23.41 162.2 65.92 88.13 86.59 89.44 223.87 2.99 312.53L873 532.36 515.39 883.75h-6.79L157.1 538.36l-20.42-20.94c-86.45-88.66-85.13-225.94 2.99-312.53 43.26-42.51 100.87-65.92 162.2-65.92 59.96 0 116.74 22.46 159.89 63.25L512 249.7l50.24-47.48c43.16-40.79 99.94-63.25 159.89-63.25m0-73.14c-75.72 0-151.46 27.78-210.13 83.23-58.66-55.45-134.42-83.23-210.13-83.23-77.26 0-154.46 28.92-213.46 86.89C-28.26 267.36-29.28 452 84.31 568.49l-0.46 0.45 4.55 4.47 368.94 362.52c15.09 14.83 34.88 22.25 54.66 22.25s39.56-7.42 54.66-22.25L935.6 573.42l4.56-4.48-0.46-0.45c113.59-116.5 112.57-301.13-4.1-415.77-59-57.97-136.22-86.89-213.47-86.89z"></path>
</svg>