<?xml version="1.0" standalone="no"?><!DOCTYPE svg PUBLIC "-//W3C//DTD SVG 1.1//EN" "http://www.w3.org/Graphics/SVG/1.1/DTD/svg11.dtd"><svg t="1660904663692" class="icon" viewBox="0 0 1024 1024" version="1.1" xmlns="http://www.w3.org/2000/svg" p-id="1026" xmlns:xlink="http://www.w3.org/1999/xlink" width="200" height="200"><defs><style type="text/css"></style></defs><path d="M943.60572093 201.75175442c-9.46367037-11.85022168-32.45663748-35.43275311-35.51883011-37.75681214-2.36532762-1.79345183-4.81555346-5.35323447-8.58522004-9.02503517-21.29148844-20.73612009-71.29470893-59.29591681-145.72589396-59.29591681-77.02998014 0-160.53218636 41.16448802-242.45672203 122.13393004-81.92453449-80.96826324-165.42674072-122.13393003-242.45672202-122.13393004-74.43236496 0-124.43440552 38.55979672-145.72589395 59.29591681-3.76966775 3.67180071-6.22107235 7.23040458-8.58522008 9.02503517-3.06219147 2.32405901-26.05515974 25.90658931-35.52000887 37.75681214C23.72191855 271.01011152-2.01133915 343.04059535 9.21394576 421.95246187c38.80741413 272.35937161 467.03198905 507.63285383 486.08195798 517.35829032l16.02315105 8.18549708 16.02315102-8.18549708c19.04996891-9.7254365 447.27572378-244.99773996 486.08195799-517.35829032C1024.6482688 343.04059535 998.91618988 271.01011152 943.60572093 201.75175442zM951.01181463 413.05831092c-30.29058252 212.65311825-358.0747987 417.13489046-439.69275984 461.93462452-81.61914109-44.79973524-409.4021785-249.28150629-439.6939398-461.93462452-10.24778881-71.89016827 16.92636135-137.10294161 86.66344465-203.33094338 0.39972415-0.52235347 39.23779444-51.0243439 110.57495188-51.02434392 66.38246719 0 139.59561599 42.74569605 217.54885255 127.00726072l24.90669072 26.91002651 24.90669073-26.91002651c77.95323654-84.2615635 151.16638417-127.00726072 217.5500313-127.00726072 71.33597868 0 110.1752289 50.50199043 110.57377312 51.02434392C934.08663207 275.95536814 961.26078339 341.16814262 951.01181463 413.05831092z" p-id="1027"></path></svg>