<?xml version="1.0" standalone="no"?><!DOCTYPE svg PUBLIC "-//W3C//DTD SVG 1.1//EN" "http://www.w3.org/Graphics/SVG/1.1/DTD/svg11.dtd"><svg t="1660904690210" class="icon" viewBox="0 0 1024 1024" version="1.1" xmlns="http://www.w3.org/2000/svg" p-id="1307" xmlns:xlink="http://www.w3.org/1999/xlink" width="200" height="200"><defs><style type="text/css"></style></defs><path d="M549.4579688 686.80385405a37.4579688 37.4579688 0 0 1-74.9159376 0V337.19614595a37.4579688 37.4579688 0 0 1 74.9159376 0v349.6077081z m187.28984402 0a37.4579688 37.4579688 0 0 1-74.9159376 0V487.0280212a37.4579688 37.4579688 0 0 1 74.9159376 0v199.77583285z m-374.57968804 0a37.4579688 37.4579688 0 0 1-74.9159376 0V437.08406239a37.4579688 37.4579688 0 0 1 74.9159376 0v249.71979166zM149.90630195 74.99036433h724.1873961c75.85238684 0 137.34588525 61.4934984 137.34588638 137.34588523v599.32750088c0 75.85238684-61.4934984 137.34588525-137.34588638 137.34588523H149.90630195c-75.85238684 0-137.34588525-61.4934984-137.34588638-137.34588523V212.33624956c0-75.85238684 61.4934984-137.34588525 137.34588638-137.34588523z m0 74.91593762a62.42994762 62.42994762 0 0 0-62.42994877 62.42994761v599.32750088a62.42994762 62.42994762 0 0 0 62.42994877 62.42994761h724.1873961a62.42994762 62.42994762 0 0 0 62.42994877-62.42994761V212.33624956a62.42994762 62.42994762 0 0 0-62.42994877-62.42994761H149.90630195z" p-id="1308"></path></svg>