<svg viewBox="0 0 1024 1024" xmlns="http://www.w3.org/2000/svg">
  <path d="M460.445281 16.97966L111.381752 219.805281a102.620863 102.620863 0 0 0-51.066144 88.726588v406.353987a102.620863 102.620863 0 0 0 51.066144 88.726588l349.063529 202.825621a102.620863 102.620863 0 0 0 103.109438 0l349.063529-202.825621a102.620863 102.620863 0 0 0 51.066144-88.726588V308.531869a102.620863 102.620863 0 0 0-51.066144-88.726588L563.554719 16.97966a102.620863 102.620863 0 0 0-103.109438 0z m62.765177 69.437909l349.056836 202.832313a22.307137 22.307137 0 0 1 11.103373 19.281987v406.353987a22.307137 22.307137 0 0 1-11.103373 19.28868L523.210458 936.993464a22.307137 22.307137 0 0 1-22.420916 0l-349.056836-202.825621a22.307137 22.307137 0 0 1-11.103373-19.28868V308.531869c0-7.944366 4.229856-15.293072 11.103373-19.281987l349.056836-202.832313a22.307137 22.307137 0 0 1 22.420916 0z" fill="#222222"></path>
  <path d="M512 327.947712c-99.856732 0-180.705882 81.364497-180.705882 181.609412 0 100.244915 80.84915 181.609412 180.705882 181.609412s180.705882-81.364497 180.705882-181.609412C692.705882 409.312209 611.856732 327.947712 512 327.947712z m0 80.313726c55.389699 0 100.392157 45.296941 100.392157 101.295686S567.389699 610.85281 512 610.85281s-100.392157-45.296941-100.392157-101.295686S456.610301 408.261438 512 408.261438z" fill="#F6B340"></path>
</svg>