<?xml version="1.0" standalone="no"?><!DOCTYPE svg PUBLIC "-//W3C//DTD SVG 1.1//EN" "http://www.w3.org/Graphics/SVG/1.1/DTD/svg11.dtd"><svg t="1660904697493" class="icon" viewBox="0 0 1024 1024" version="1.1" xmlns="http://www.w3.org/2000/svg" p-id="1588" xmlns:xlink="http://www.w3.org/1999/xlink" width="200" height="200"><defs><style type="text/css"></style></defs><path d="M70.267586 359.918345c-39.406345 0-70.267586 33.633103-70.267586 73.533793v499.358896C0 972.658759 30.75531 1006.344828 70.285241 1006.344828h175.845518V395.22869l-4.660966 17.566896a2667.714207 2667.714207 0 0 1 31.408552-52.577103 2488.108138 2488.108138 0 0 1 75.369931-115.994483 1438.596414 1438.596414 0 0 1 47.633655-65.05931C440.461241 122.067862 477.925517 88.275862 489.454345 88.275862c83.508966 0 99.522207 36.034207 76.570483 127.205517-4.449103 17.655172-10.24 36.281379-18.220138 59.409655-3.124966 9.004138-13.506207 38.258759-14.936276 42.372414-5.59669 16.066207-9.216 27.365517-11.828966 37.376-3.760552 14.653793-5.296552 26.164966-3.65462 37.252414 3.283862 22.192552 20.303448 38.664828 44.049655 38.664828h350.596414c33.31531 0 49.540414 24.823172 37.552551 63.117241L837.702621 851.508966c-14.336 45.832828-63.417379 84.215172-105.648552 84.215172H210.838069v70.62069h521.216c73.992828 0 149.751172-59.233103 173.056-133.755587l111.880828-357.835034c25.63531-82.008276-21.945379-154.835862-104.96-154.835862H561.434483c13.064828 0 24.205241 10.769655 25.811862 21.645241 0.088276 0.653241 0.582621-3.072 2.189241-9.268965 1.977379-7.662345 5.12-17.44331 10.116414-31.779311 1.324138-3.813517 11.758345-33.191724 15.006897-42.584276 8.580414-24.858483 14.918621-45.250207 19.950344-65.200551C667.17131 102.964966 629.21269 17.655172 489.43669 17.655172c-43.431724 0-89.458759 41.489655-149.221518 118.042483a1507.87531 1507.87531 0 0 0-49.999448 68.272552 2556.998621 2556.998621 0 0 0-77.541517 119.33131 2737.928828 2737.928828 0 0 0-32.485517 54.377931l-4.660966 8.15669V971.034483l35.310345-35.310345h-140.535172C71.238621 935.724138 70.62069 433.452138 70.62069 433.452138c0-2.189241 140.217379-2.913103 140.217379-2.913104v-70.620689H70.267586z" p-id="1589"></path></svg>